<?xml version="1.0" encoding="utf-8"?>
<svg xmlns="http://www.w3.org/2000/svg" xmlns:xlink="http://www.w3.org/1999/xlink" style="margin: auto; background: none; display: block; shape-rendering: auto;" width="104px" height="104px" viewBox="0 0 100 100" preserveAspectRatio="xMidYMid">
<g transform="translate(50 50)">
<g>
<animateTransform attributeName="transform" type="rotate" values="0;45" keyTimes="0;1" dur="0.2061855670103093s" repeatCount="indefinite"></animateTransform><path d="M12.874393189583733 -5.5 L20.874393189583735 -5.5 L20.874393189583735 5.5 L12.874393189583733 5.5 A14 14 0 0 1 12.992658024542575 5.21448343149055 L12.992658024542575 5.21448343149055 L18.649512274034954 10.87133768098293 L10.871337680982933 18.649512274034954 L5.214483431490552 12.992658024542573 A14 14 0 0 1 5.5 12.874393189583733 L5.5 12.874393189583733 L5.500000000000001 20.874393189583735 L-5.499999999999997 20.874393189583735 L-5.499999999999998 12.874393189583733 A14 14 0 0 1 -5.21448343149055 12.992658024542575 L-5.21448343149055 12.992658024542575 L-10.87133768098293 18.649512274034954 L-18.649512274034954 10.87133768098293 L-12.992658024542575 5.2144834314905495 A14 14 0 0 1 -12.874393189583731 5.500000000000003 L-12.874393189583731 5.500000000000003 L-20.87439318958373 5.5000000000000036 L-20.874393189583735 -5.499999999999999 L-12.874393189583733 -5.5 A14 14 0 0 1 -12.992658024542575 -5.214483431490547 L-12.992658024542575 -5.214483431490547 L-18.649512274034954 -10.871337680982926 L-10.871337680982931 -18.649512274034954 L-5.21448343149055 -12.992658024542575 A14 14 0 0 1 -5.5000000000000036 -12.874393189583731 L-5.5000000000000036 -12.874393189583731 L-5.500000000000005 -20.87439318958373 L5.499999999999997 -20.874393189583735 L5.499999999999999 -12.874393189583733 A14 14 0 0 1 5.214483431490546 -12.992658024542575 L5.214483431490546 -12.992658024542575 L10.871337680982926 -18.649512274034954 L18.64951227403495 -10.871337680982933 L12.992658024542573 -5.214483431490551 A14 14 0 0 1 12.87439318958373 -5.500000000000004 M0 -30A30 30 0 1 0 0 30 A30 30 0 1 0 0 -30" fill="#d5912e"></path></g></g>
<!-- [ldio] generated by https://loading.io/ --></svg>